<svg width="80" height="80" viewBox="0 0 80 80" fill="none" xmlns="http://www.w3.org/2000/svg">
<mask id="mask0_2_12" style="mask-type:luminance" maskUnits="userSpaceOnUse" x="3" y="0" width="74" height="80">
<path d="M76.2545 0.102417H3.401V79.8474H76.2545V0.102417Z" fill="white"/>
</mask>
<g mask="url(#mask0_2_12)">
<path d="M75.6175 46.5031L75.522 42.8755C75.489 41.5671 75.3795 40.2436 75.275 38.9634L75.2095 38.1551C75.117 36.9967 74.476 36.3591 73.4045 36.3591H73.2355C71.5785 36.3614 69.866 36.3636 68.18 36.4204C66.403 36.4808 64.597 36.5631 62.851 36.6429C59.471 36.7971 55.9745 36.9566 52.5394 36.9616C47.2369 36.9698 41.8454 36.8913 36.6305 36.8165C32.9567 36.764 29.1574 36.7095 25.4199 36.6852C23.4873 36.6731 21.5278 36.7669 19.632 36.8578C19.0588 36.8854 18.4854 36.9123 17.9117 36.938C18.1618 36.8224 18.4125 36.7082 18.6665 36.5989C22.3567 34.9988 26.0462 33.397 29.735 31.7936C39.6129 27.5031 49.8265 23.0664 59.892 18.7493C65.277 16.44 69.82 14.9714 74.19 14.1273C75.1495 13.9423 75.667 13.2764 75.5735 12.3467C75.483 11.698 75.2635 11.0739 74.928 10.5115C74.384 9.51785 73.7905 8.55245 73.1485 7.61905C71.618 5.40195 70.054 3.22164 68.863 1.57062C68.1005 0.5126 67.144 0.154201 66.0235 0.50567C65.264 0.74359 64.485 0.971675 63.7325 1.19254C62.3115 1.60898 60.8445 2.03952 59.4265 2.55737C48.5824 6.5233 34.3412 11.8826 20.3537 18.1782C15.9027 20.1817 11.416 22.3014 7.07694 24.3511L5.40329 25.1407C4.4772 25.5778 3.8937 26.162 3.66398 26.877C3.43919 27.5856 3.57602 28.3889 4.07123 29.2638C5.54817 31.9389 6.65785 34.8009 7.37029 37.7721C7.44577 38.0704 7.54262 38.3629 7.63614 38.6451C7.71687 38.8872 7.79728 39.1295 7.86357 39.3753C7.90885 39.5426 7.96202 39.7109 8.01255 39.8793C8.16965 40.3059 8.263 40.7536 8.2895 41.2071C8.28785 41.9763 8.23994 42.7636 8.194 43.5249C8.13624 44.475 8.07688 45.4575 8.10411 46.4289C8.24096 51.345 8.43555 56.6375 8.71545 63.083C8.7811 64.5965 8.87955 66.132 8.9734 67.6175C9.10305 69.6545 9.23595 71.7605 9.28975 73.831C9.37605 77.2325 9.9727 77.891 13.2783 78.234C13.508 78.258 13.7397 78.2705 13.9708 78.28C16.3992 78.3815 18.8707 78.503 21.2601 78.6205C26.6489 78.8855 32.2209 79.1595 37.7072 79.2235C44.9171 79.307 52.247 79.245 59.336 79.184C62.9615 79.153 66.7105 79.1215 70.397 79.1095C71.136 79.1345 71.869 79.2515 72.579 79.4575C72.8595 79.5365 73.149 79.5785 73.44 79.5815C74.356 79.5815 75.0345 79.0975 75.4265 78.152C75.623 77.7045 75.7385 77.226 75.7675 76.738C75.798 75.8455 75.835 74.9525 75.8715 74.06C75.9765 71.513 76.0855 68.8795 76.051 66.286C75.965 59.6905 75.7885 52.9865 75.6175 46.5031ZM10.7799 36.6672L6.92205 27.9564L17.451 23.3718L16.6004 33.7285L10.7799 36.6672ZM71.5015 39.6453L71.1685 74.9525C65.211 75.262 59.282 75.2735 53.546 75.285L51.9222 75.2885C45.8267 75.304 39.7799 75.2205 32.5734 75.0915C28.0738 75.0115 23.6659 74.8945 18.9993 74.769C17.0651 74.7175 15.1154 74.666 13.1503 74.6155L12.9065 72.2375C11.8534 61.9955 10.7649 51.407 11.0687 40.8388C11.2272 40.8172 11.3864 40.7939 11.5466 40.771C12.0848 40.6935 12.6417 40.6131 13.1897 40.5787C21.6749 40.0457 30.2959 40.2347 38.3983 40.4743C44.1009 40.643 50.3108 40.661 57.9445 40.5323C60.629 40.4867 63.3505 40.2698 65.982 40.0585C67.148 39.9653 68.3545 39.8688 69.5395 39.7887C70.0245 39.7559 70.5095 39.7195 71.046 39.6791L71.5015 39.6453ZM42.951 21.8258L33.2241 26.1409L33.421 23.9862C33.6353 21.6234 33.8375 19.3964 34.033 17.1684C34.031 16.9233 34.11 16.6845 34.2579 16.489C34.4057 16.2934 34.6141 16.1523 34.8505 16.0875C37.2599 15.1529 39.6381 14.1959 42.1559 13.1825C42.8896 12.8874 43.6336 12.5886 44.3874 12.2863C44.2279 13.0956 44.0448 13.8907 43.8663 14.6642C43.3123 17.0533 42.7909 19.3144 42.9513 21.8268L42.951 21.8258ZM46.4398 20.232C46.5238 19.6474 46.6058 19.0727 46.6859 18.508C47.0318 16.0795 47.3583 13.785 47.7252 11.5121C47.7738 11.3654 47.8509 11.2299 47.9523 11.1133C48.0537 10.9968 48.1774 10.9017 48.3159 10.8335C50.7145 9.8749 53.1046 8.95965 55.634 7.9909L57.384 7.32015C57.3605 7.5337 57.325 7.74575 57.278 7.9554L57.0335 8.9521C56.473 11.2417 55.8935 13.6095 55.28 15.9254C55.19 16.2363 54.9855 16.5015 54.708 16.668C52.5709 17.6196 50.404 18.5431 48.1101 19.5205L46.4398 20.232ZM59.993 14.3866L61.2945 5.88145C62.5985 5.1752 64.375 4.75976 65.9475 4.4247C66.146 4.39328 66.349 4.43434 66.5195 4.54047L66.858 4.96486C68.3075 6.77965 69.804 8.6531 70.8015 10.9227L59.993 14.3866ZM19.9743 31.1455C20.0148 30.0002 20.0585 28.855 20.1055 27.7102C20.1656 26.2216 20.2256 24.7327 20.2729 23.2435C20.2965 22.4887 20.3409 22.0841 21.0277 21.8085C23.1936 20.9352 25.3785 20.0081 27.4926 19.1112C28.492 18.687 29.4919 18.2642 30.4924 17.8428C30.5125 17.8349 30.5334 17.8293 30.5548 17.8262L29.1561 27.9399L20.0275 32.0601C20.0252 32.0338 20.0225 32.0076 20.0202 31.9817C19.9879 31.704 19.9731 31.4244 19.9759 31.1448L19.9743 31.1455Z" fill="#3C4D60"/>
<path d="M63.7705 60.013C63.764 59.675 63.7575 59.3255 63.728 58.9795C63.6755 58.372 63.625 57.764 63.5775 57.156C63.425 55.277 63.268 53.3335 63.0145 51.431C62.7665 49.5669 61.949 48.8492 59.998 48.7822C59.386 48.7612 58.7745 48.737 58.163 48.7127C56.6675 48.6536 55.1215 48.5922 53.5975 48.5814C46.3547 48.524 38.8629 48.4646 31.3736 48.4777C29.839 48.4803 28.2842 48.567 26.7792 48.6506C25.7464 48.7081 24.6789 48.7675 23.6287 48.799C22.3515 48.837 21.5321 49.4353 21.1931 50.5765C20.9964 51.1905 20.8977 51.831 20.9007 52.4755C20.9552 54.5615 21.0514 56.8185 21.1961 59.3765C21.2617 60.5565 21.3506 61.8225 21.5492 63.0915C21.8399 64.952 22.8799 66.026 24.7285 66.373C25.8983 66.6125 27.0845 66.763 28.277 66.825C32.3735 66.9635 36.5391 67.074 40.5677 67.1805C42.0238 67.219 43.4799 67.258 44.936 67.2975L45.2599 67.3065L45.2641 67.2015C46.3674 67.2015 47.4704 67.2025 48.5737 67.205C52.244 67.209 56.0395 67.214 59.773 67.174C60.268 67.1685 61.49 67.0865 62.1445 66.4415C63.611 64.9975 64.191 63.324 63.8695 61.469C63.799 60.987 63.766 60.5005 63.7705 60.013ZM59.859 63.1525C56.2195 63.817 28.57 63.725 25.2 63.031L24.0186 52.1205C34.3527 51.6735 46.5834 51.343 59.3045 52.1845C59.5645 54.1575 59.6785 56.1465 59.645 58.1355C59.629 59.8105 59.7005 61.4855 59.859 63.1525Z" fill="#3C4D60"/>
<path d="M56.2195 58.775C55.796 58.5825 55.3265 58.513 54.8655 58.5755C54.7635 58.579 54.662 58.583 54.565 58.5835C53.6785 58.589 52.7927 58.604 51.9086 58.6185C50.9422 58.6345 49.9757 58.6515 49.0092 58.6545C46.9552 58.663 44.9009 58.669 42.8469 58.6715C39.7342 58.678 36.5155 58.6845 33.3497 58.707C32.5414 58.7265 31.7346 58.787 30.9324 58.888C30.7217 58.9115 30.5111 58.934 30.3007 58.9555C30.1044 58.9685 29.9133 59.0235 29.7404 59.117C29.5675 59.2105 29.417 59.3405 29.2991 59.498C29.2126 59.626 29.1554 59.772 29.1317 59.9245C29.108 60.0775 29.1183 60.2335 29.1619 60.3815C29.2978 60.8755 29.7881 61.2485 30.2367 61.559C30.4798 61.6895 30.7605 61.7325 31.0315 61.68C31.106 61.6745 31.1798 61.6685 31.2487 61.6685C34.4169 61.6685 37.5844 61.6685 40.3941 61.6685H42.3438L45.6892 61.83C48.685 61.976 51.5145 62.114 54.29 62.224C54.4165 62.229 54.5495 62.233 54.6875 62.233C55.2745 62.255 55.859 62.1495 56.4015 61.9245C56.9225 61.679 57.511 60.8745 57.429 60.32C57.338 59.7015 56.738 59.0855 56.2195 58.775Z" fill="#3C4D60"/>
<path d="M31.1846 56.933L32.4644 57.1065C34.0606 57.3245 35.7107 57.5495 37.3425 57.7165C37.5 57.733 37.6585 57.7405 37.817 57.7405C38.3696 57.735 38.9193 57.6555 39.451 57.504C39.9104 57.375 40.2537 56.779 40.3229 56.398C40.3974 55.989 40.0033 55.49 39.6902 55.2875C39.3112 55.0645 38.8862 54.9315 38.4477 54.8975C37.3976 54.791 36.3258 54.7055 35.291 54.623C34.8946 54.5915 34.4983 54.5595 34.1023 54.5275L33.7922 54.5015L33.7824 54.574C33.5914 54.574 33.4004 54.5725 33.2094 54.57C32.4428 54.563 31.6499 54.556 30.8679 54.6C30.5145 54.6195 29.8233 55.012 29.8243 55.439C29.8743 55.874 30.061 56.2815 30.3576 56.6035C30.5824 56.8125 30.8774 56.93 31.1846 56.933Z" fill="#3C4D60"/>
</g>
</svg>
